<!--<svg xmlns="http://www.w3.org/2000/svg" viewBox="0 0 24 24" fill="mediumpurple" width="24" height="24">-->
<!--  <path-->
<!--    id="discord"-->
<!--    d="M20.317 4.369a19.791 19.791 0 00-4.885-1.515.074.074 0 00-.078.037c-.211.37-.444.855-.608 1.237a18.223 18.223 0 00-5.487 0 12.704 12.704 0 00-.617-1.237.077.077 0 00-.078-.037 19.736 19.736 0 00-4.886 1.515.069.069 0 00-.033.028C.533 9.693-.32 14.929.099 20.092c.002.027.02.054.045.071a19.817 19.817 0 005.993 3.036.075.075 0 00.082-.028c.464-.63.873-1.295 1.226-1.994a.076.076 0 00-.041-.105 14.733 14.733 0 01-2.087-1.005.076.076 0 01-.007-.128c.141-.108.283-.221.416-.333a.075.075 0 01.078-.01c4.35 1.985 9.033 1.985 13.347 0a.075.075 0 01.079.009c.133.112.275.226.417.333a.076.076 0 01-.006.128c-.666.433-1.353.752-2.087 1.005a.076.076 0 00-.041.105c.38.725.799 1.395 1.253 2.015a.075.075 0 00.082.027 19.821 19.821 0 005.993-3.036.074.074 0 00.045-.071c.444-5.082-.6-10.291-3.922-15.695a.071.071 0 00-.034-.028zm-12.885 9.335c-1.184 0-2.153-1.085-2.153-2.419s.955-2.418 2.153-2.418c1.201 0 2.156 1.075 2.153 2.418 0 1.334-.955 2.419-2.153 2.419zm8.736 0c-1.183 0-2.153-1.085-2.153-2.419s.955-2.418 2.153-2.418c1.2 0 2.155 1.075 2.153 2.418 0 1.334-.954 2.419-2.153 2.419z"/>-->
<!--</svg>-->
<svg viewBox="0 0 1024 1024" xmlns="http://www.w3.org/2000/svg" fill="#000000">
  <g id="SVGRepo_bgCarrier" stroke-width="0"></g>
  <g id="SVGRepo_tracerCarrier" stroke-linecap="round" stroke-linejoin="round"></g>
  <g id="SVGRepo_iconCarrier">
    <circle cx="512" cy="512" r="512" style="fill:#5865f2"></circle>
    <path
      d="M689.43 349a422.21 422.21 0 0 0-104.22-32.32 1.58 1.58 0 0 0-1.68.79 294.11 294.11 0 0 0-13 26.66 389.78 389.78 0 0 0-117.05 0 269.75 269.75 0 0 0-13.18-26.66 1.64 1.64 0 0 0-1.68-.79A421 421 0 0 0 334.44 349a1.49 1.49 0 0 0-.69.59c-66.37 99.17-84.55 195.9-75.63 291.41a1.76 1.76 0 0 0 .67 1.2 424.58 424.58 0 0 0 127.85 64.63 1.66 1.66 0 0 0 1.8-.59 303.45 303.45 0 0 0 26.15-42.54 1.62 1.62 0 0 0-.89-2.25 279.6 279.6 0 0 1-39.94-19 1.64 1.64 0 0 1-.16-2.72c2.68-2 5.37-4.1 7.93-6.22a1.58 1.58 0 0 1 1.65-.22c83.79 38.26 174.51 38.26 257.31 0a1.58 1.58 0 0 1 1.68.2c2.56 2.11 5.25 4.23 8 6.24a1.64 1.64 0 0 1-.14 2.72 262.37 262.37 0 0 1-40 19 1.63 1.63 0 0 0-.87 2.28 340.72 340.72 0 0 0 26.13 42.52 1.62 1.62 0 0 0 1.8.61 423.17 423.17 0 0 0 128-64.63 1.64 1.64 0 0 0 .67-1.18c10.68-110.44-17.88-206.38-75.7-291.42a1.3 1.3 0 0 0-.63-.63zM427.09 582.85c-25.23 0-46-23.16-46-51.6s20.38-51.6 46-51.6c25.83 0 46.42 23.36 46 51.6.02 28.44-20.37 51.6-46 51.6zm170.13 0c-25.23 0-46-23.16-46-51.6s20.38-51.6 46-51.6c25.83 0 46.42 23.36 46 51.6.01 28.44-20.17 51.6-46 51.6z"
      style="fill:#fff">
    </path>
  </g>
</svg>
