<svg xmlns="http://www.w3.org/2000/svg" viewBox="0 0 24 24" fill="white" width="24" height="24">
  <path
    id="github"
    d="M12 .297C5.373.297 0 5.67 0 12.297c0 5.3 3.438 9.8 8.207 11.387.6.11.793-.26.793-.577v-2.243c-3.338.726-4.033-1.61-4.033-1.61-.546-1.387-1.333-1.756-1.333-1.756-1.09-.745.083-.729.083-.729 1.204.085 1.837 1.237 1.837 1.237 1.07 1.835 2.809 1.305 3.492.998.108-.774.42-1.306.763-1.606-2.665-.305-5.466-1.333-5.466-5.93 0-1.31.465-2.381 1.235-3.22-.123-.303-.535-1.526.117-3.176 0 0 1.008-.322 3.3 1.23.96-.266 1.98-.399 3-.405 1.02.006 2.04.14 3 .405 2.29-1.552 3.296-1.23 3.296-1.23.655 1.65.243 2.873.12 3.176.77.839 1.234 1.91 1.234 3.22 0 4.61-2.804 5.623-5.475 5.92.43.372.823 1.102.823 2.222v3.293c0 .319.192.694.801.576C20.565 22.093 24 17.592 24 12.297 24 5.67 18.627.297 12 .297z"/>
</svg>
