<!--<svg xmlns="http://www.w3.org/2000/svg" viewBox="0 0 24 24" fill="lightblue" width="24" height="24">-->
<!--  <path-->
<!--    id="linkedin"-->
<!--    d="M19 0H5C2.238 0 0 2.238 0 5v14c0 2.762 2.238 5 5 5h14c2.762 0 5-2.238 5-5V5c0-2.762-2.238-5-5-5zM8.4 20.5H5.56V9.637h2.84V20.5zM6.981 8.29c-.933 0-1.559-.663-1.559-1.488 0-.838.64-1.489 1.588-1.489.947 0 1.558.651 1.566 1.489 0 .825-.619 1.488-1.595 1.488zm13.519 12.21h-2.83v-5.833c0-1.469-.526-2.473-1.843-2.473-.998 0-1.591.677-1.853 1.332-.095.23-.118.548-.118.867v6.108h-2.829s.037-9.919 0-10.963h2.829v1.554c.377-.577 1.053-1.4 2.564-1.4 1.872 0 3.28 1.222 3.28 3.849v6.96z"/>-->
<!--</svg>-->
<svg viewBox="0 0 16 16" xmlns="http://www.w3.org/2000/svg" fill="none">
  <g id="SVGRepo_bgCarrier" stroke-width="0"></g>
  <g id="SVGRepo_tracerCarrier" stroke-linecap="round" stroke-linejoin="round"></g>
  <g id="SVGRepo_iconCarrier">
    <path fill="#0A66C2"
          d="M12.225 12.225h-1.778V9.44c0-.664-.012-1.519-.925-1.519-.926 0-1.068.724-1.068 1.47v2.834H6.676V6.498h1.707v.783h.024c.348-.594.996-.95 1.684-.925 1.802 0 2.135 1.185 2.135 2.728l-.001 3.14zM4.67 5.715a1.037 1.037 0 01-1.032-1.031c0-.566.466-1.032 1.032-1.032.566 0 1.031.466 1.032 1.032 0 .566-.466 1.032-1.032 1.032zm.889 6.51h-1.78V6.498h1.78v5.727zM13.11 2H2.885A.88.88 0 002 2.866v10.268a.88.88 0 00.885.866h10.226a.882.882 0 00.889-.866V2.865a.88.88 0 00-.889-.864z">
    </path>
  </g>
</svg>
